# xmcd
#
# Track frame offsets: 
#        150
#        18126
#        32157
#        50212
#        69046
#        84930
#        98517
#        113704
#        122503
#        134113
#        145135
#
# Disc length: 2108 seconds
#
# Revision: 1
# Processed by: cddbd v1.5.2PL0 Copyright (c) Steve Scherf et al.
# Submitted via: ExactAudioCopyFreeDBPlugin 1.0
#
DISCID=8a083a0b
DTITLE=Bryen Willems - Too Cold at Home
DYEAR=2007
DGENRE=Country
TTITLE0=Lonesome, On'ry and Mean
TTITLE1=11 Months and 29 Days
TTITLE2=Too Cold at Home
TTITLE3=Deep Down I'm Shallow
TTITLE4=As Long as I Live
TTITLE5=Highway Junkie
TTITLE6=Honky-Tonk Song
TTITLE7=Another Day, Another Dollar
TTITLE8=Beer and Lipstick
TTITLE9=Baby Are You Runnin'
TTITLE10=Just a Closer Walk with Thee
EXTD=
EXTT0=
EXTT1=
EXTT2=
EXTT3=
EXTT4=
EXTT5=
EXTT6=
EXTT7=
EXTT8=
EXTT9=
EXTT10=
PLAYORDER=
